PathFileType	4	(X/Y/Z)	pose_F01_0-87.trc
DataRate	CameraRate	NumFrames	NumMarkers	Units	OrigDataRate	OrigDataStartFrame	OrigNumFrames
30	30	10	21	m	30	62	87
Frame#	Time	CHip			RHip			RKnee			RAnkle			RBigToe			RSmallToe			RHeel			LHip			LKnee			LAnkle			LBigToe			LSmallToe			LHeel			Neck			Nose			RShoulder			RElbow			RWrist			LShoulder			LElbow			LWrist			
		X1	Y1	Z1	X2	Y2	Z2	X3	Y3	Z3	X4	Y4	Z4	X5	Y5	Z5	X6	Y6	Z6	X7	Y7	Z7	X8	Y8	Z8	X9	Y9	Z9	X10	Y10	Z10	X11	Y11	Z11	X12	Y12	Z12	X13	Y13	Z13	X14	Y14	Z14	X15	Y15	Z15	X16	Y16	Z16	X17	Y17	Z17	X18	Y18	Z18	X19	Y19	Z19	X20	Y20	Z20	X21	Y21	Z21	
62	2.066666666666667	-0.2070216933205347	1.834154716453073	-0.5028337382542158	-0.2212199511979491	1.8322358734958393	-0.4512183244286774	-0.2215706191432656	1.7093518769294302	-0.43188769809645206				-0.23013690471919018	1.5431238589551985	-0.5940767043332305							-0.18986478006718902	1.83549382278412	-0.5568194298046907	-0.18972633943531358	1.7238501711452996	-0.5446817316580914	-0.1786291856846623	1.6177822704507854	-0.5099417529670718	-0.17576655230730037	1.5951857990023213	-0.577262337411883	-0.17092644963631123	1.6015587892812497	-0.582950040053702	-0.18636995848373328	1.6191921790802606	-0.4982173400746135	-0.20139325277165185	1.977803314812196	-0.5143366324045408	-0.19597250775190772	2.043743850496282	-0.5748541247737285	-0.22059504168034536	1.9771543296568945	-0.43670235529345863	-0.236611541506792	1.8939269414705737	-0.41070133229380784	-0.24660445366685296	1.8251608432458852	-0.42125376466396985	-1.603267023698403	1.8854155807190198	0.9679641419754045	-0.16623777299768097	1.9017650857882598	-0.5939295589358398	-0.16830873089103396	1.8381966022302387	-0.6187260076827159
63	2.1	-0.20602373204801214	1.8356319348828833	-0.49980348999814866	-0.2220643087205894	1.8332437879885128	-0.44596401485656695	-0.22346797581308084	1.7120135835617065	-0.4298880652726986				-0.23013690471919018	1.5431238589551985	-0.5940767043332305							-0.1917267752241993	1.8368448990405326	-0.5547075193029504	-0.19240367285397406	1.727145968148752	-0.5639106970214062	-0.17929680881529478	1.6247303761337544	-0.5099530434678817	-0.1775599456908572	1.5913771320995873	-0.5743459314117921	-0.17045220819836987	1.5992820286222222	-0.582990036641209	-0.186154864488281	1.6217053413955882	-0.49803487280572006	-1.7506755393096873	1.8882086758601018	1.1967711019610825	-0.1989159369316697	2.0439921389535822	-0.5756998620477018	-0.22451148062502857	1.977783790581833	-0.44092008912592245	-0.23659610208893475	1.8961471162757566	-0.4108830073974734	-0.24779191151431904	1.8326194491064425	-0.4252507421589403	-1.617337790165423	1.885443217950323	0.9891849614384436	-0.17134026448208145	1.9021341409615722	-0.5925388738349423	-0.16942529600630743	1.839418220528723	-0.6134035890332848
64	2.1333333333333333	-0.20902638491395908	1.8374961971958155	-0.5008627132671304	-0.22235026175137398	1.8328789375647931	-0.4457390525504223	-0.22568627384815537	1.7160566701418247	-0.42786879759289564				-0.23013690471919018	1.5431238589551985	-0.5940767043332305							-0.1939392732342231	1.8386507357423167	-0.5526039690271408	-0.19350422680543963	1.7266755059489014	-0.5714512335468199	-0.18028884546381796	1.6322859152151536	-0.5144112272592937	-0.17891923333580126	1.5925690716221628	-0.5731534966411955	-0.17185732208673268	1.6007606346239576	-0.5819910122949463	-0.18853959555520344	1.6228406461739533	-0.49567888168556645	-1.7543976519866467	1.8901612104192518	1.2015642707744152	-0.2009779350098338	2.0439214985548206	-0.573603147186768	-0.22852527411532156	1.9792718352602843	-0.44561194196476295	-0.23872713764665207	1.8959384127147005	-0.40881029312189787	-0.2490766496884294	1.8300443675070623	-0.41967481849452215	-1.622791129808132	1.8871114642346698	0.9963060177517853	-0.17666349828094058	1.9076136795287828	-0.5826896407144685	-0.17362859436598305	1.8464282370714677	-0.6092829726714718
65	2.1666666666666665	-0.21112186126740065	1.8348628128831412	-0.4984014571523482	-0.22723134099150075	1.8326572981527842	-0.4445058948716222	-0.2249621212924918	1.7157064991906081	-0.43791931690537406				-0.23013690471919018	1.5431238589551985	-0.5940767043332305							-0.19615790171205336	1.8366023667717433	-0.550075877703511	-0.19535899840280732	1.7269487426346963	-0.5779886474818017	-0.18383240720003446	1.6244655935068795	-0.5274807741626413	-0.18226274180646285	1.5931174208821395	-0.5916716409361258	-0.17692904029256953	1.5999853058261173	-0.5983646964120877	-0.19117890604339693	1.6128918097393699	-0.5125129376807276	-1.7560467012750856	1.8901762093590777	1.203386541049458	-0.2036865624022951	2.044776088783194	-0.5828250866119759	-0.22857320931425235	1.9792783676331038	-0.4456266593546676	-0.2398083207999288	1.9009699011997414	-0.4128499887411481	-0.2554531187034913	1.8406897050050581	-0.4402174650228992	-1.638359057003088	1.8892189451879238	1.0199039499750129	-0.17789094538048383	1.913893041611605	-0.577074721653003	-0.17407135043419936	1.8517814305022218	-0.6091285843012059
66	2.2	-0.21038188866341256	1.8347255647651701	-0.5037450548847235	-0.22554638498105442	1.829679604596162	-0.4463435158796491	-0.22423796873682822	1.7153563282393918	-0.44796983621785247				-0.23013690471919018	1.5431238589551985	-0.5940767043332305							-0.19701058971149743	1.838367811343903	-0.5620088190984877	-0.19572461772088962	1.726632229903891	-0.5777453427612125	-0.18737596893625097	1.6166452717986055	-0.540550321065989	-0.18499634779581547	1.5845325155228709	-0.6100671610059779	-0.1785475414864937	1.594465935805124	-0.617549796189666	-0.19381821653159043	1.6029429733047866	-0.5293469936758888	-1.7564212049701042	1.8902605175303506	1.2035200357333085	-0.20550003692216925	2.0456866777492566	-0.5889736386294325	-0.2314509165264448	1.9778452046477093	-0.44632006604137053	-0.24398151434102514	1.8911057025788562	-0.42463049782538803	-0.2592496058355274	1.829916997861401	-0.45781591332327254	-0.18083079128294255	1.9834812025083717	-0.5754741979543958	-0.1759578678627951	1.914121254640328	-0.5907788017124909	-0.17222926621449935	1.8518683050413935	-0.6209854097385901
67	2.2333333333333334	-0.21213078594611	1.8334758531788469	-0.510218744654934	-0.22441719252971912	1.8283494082408591	-0.4517465129551552	-0.22351381618116464	1.7150061572881752	-0.45802035553033094				-0.23013690471919018	1.5431238589551985	-0.5940767043332305							-0.19873189293813362	1.8364031629861257	-0.5685619339691592	-0.19426321794877757	1.7198004031589176	-0.578663536859637	-0.19061930545400874	1.6033466627078752	-0.5663349351357772	-0.19008674037823586	1.5716678628440255	-0.6373322956335958	-0.1816861658719902	1.5862202051281151	-0.6472358035933049	-0.19645752701978392	1.5929941368702032	-0.54618104967105	-1.7458387889394924	1.890145524483309	1.1850353755521252	-0.206381744226679	2.0455730942598493	-0.5920456660303248	-0.23249497583858955	1.9776148979349555	-0.44961266595555877	-0.2449805638601576	1.893370432435043	-0.4284637316098103	-0.24999704107436532	1.828475641170619	-0.4456867836749777	-0.18176888424211754	1.9837626709225993	-0.5787389585711362	-0.17402479034510634	1.9143494676690511	-0.6044828817719787	-0.17038718199479935	1.8519551795805653	-0.6328422351759743
68	2.2666666666666666	-0.21195519645734875	1.8324659351262997	-0.5189154106047972	-0.22467459599568615	1.8278227486182046	-0.4603332840755706	-0.22278966362550107	1.7146559863369586	-0.46807087484280935				-0.23013690471919018	1.5431238589551985	-0.5940767043332305							-0.19731166211256387	1.8344561622032092	-0.5741389365292493	-0.1954692196063052	1.7125276694998066	-0.5852684432065198	-0.19178604225812662	1.5915495573657175	-0.598942330304316	-0.1960646147989118	1.5654887703280598	-0.672665987285991	-0.18707368698572874	1.5748197813331513	-0.6830130288652542	-0.1977853593878876	1.5787402464466864	-0.5827713758256592	-1.7349189058886474	1.890177885232946	1.166381028054009	-0.20648487304069266	2.0451847956772164	-0.5923121255184972	-0.23163871286953502	1.9789537349733697	-0.4554982780966089	-0.24432622110182434	1.8938926984551132	-0.4339486840712135	-0.25105757314853405	1.8269746749162767	-0.44910232884326207	-0.18063416182211037	1.9843182734299059	-0.5841095391905573	-0.17209171282741761	1.9145776806977741	-0.6181869618314666	-0.16854509777509935	1.8520420541197373	-0.6446990606133586
69	2.3	-0.21083281715851634	1.8323078766193888	-0.5244848468223223	-0.2245035974688981	1.830267035824401	-0.46951393335228153	-0.2220655110698375	1.7143058153857422	-0.47812139415528776				-0.23013690471919018	1.5431238589551985	-0.5940767043332305							-0.19406835766244526	1.8349773974472279	-0.5817440597424708	-0.1966521719790544	1.7095486194589826	-0.5965400354216266	-0.19115620707191822	1.587554241955784	-0.6288160146918612	-0.19286066527768844	1.5567249514143857	-0.69567353706411	-0.1855267587829563	1.5666141782364988	-0.7041929055091162	-0.19307210778800057	1.5710411685334285	-0.608330958201492	-1.7233196639908963	1.8900509704652213	1.1466744868196255	-0.20530847546744294	2.0458509038216923	-0.597622388234032	-0.2306648113140736	1.978029498738421	-0.46060342226302886	-0.2442801606209371	1.8961892113262175	-0.4430169129539383	-0.24831111530882635	1.825932668372555	-0.456811665579324	-0.18320305553532218	1.9850403789720923	-0.5936003063344161	-0.17015863530972888	1.9148058937264971	-0.6318910418909545	-0.16670301355539935	1.852128928658909	-0.6565558860507428
70	2.3333333333333335	-0.21030350184044846	1.8320175966344823	-0.5334319280433681	-0.22410732366251349	1.8285322040078231	-0.47839219703399527	-0.2213413585141739	1.7139556444345256	-0.48817191346776617				-0.23013690471919018	1.5431238589551985	-0.5940767043332305							-0.19283163275157233	1.8357626446956146	-0.5875274947205426	-0.19526790157540788	1.708892494447271	-0.602260372007106	-0.19128802355204777	1.5869161243070369	-0.6500262340059922	-0.19458484651129046	1.5515856208921908	-0.7102249251536502	-0.18619931300061862	1.561302059814571	-0.7233391053303027	-0.19304284724463155	1.5694713196988914	-0.6295207938425983	-1.6794099362870138	1.889884179826951	1.0718899331345177	-0.2066830259097678	2.0476264685511127	-0.6123184785145942	-1.79228269654815	1.8898424020592346	1.2570967907653492	-0.24536016379034684	1.8961667433116784	-0.4550862658710086	-0.24980729552047273	1.831400964959594	-0.4779569105922709	-1.5480705288589496	1.8895798866242588	0.8706615617184937	-0.16822555779204013	1.9150341067552201	-0.6455951219504423	-0.16486092933569935	1.8522158031980809	-0.668412711488127
71	2.3666666666666667	-0.20829118359951926	1.8343452505783011	-0.5448378142991552	-0.22437562162472208	1.8319370590905166	-0.4875897429331704	-0.22061720595851034	1.713605473483309	-0.4982224327802446				-0.23013690471919018	1.5431238589551985	-0.5940767043332305							-0.19163521198829783	1.8386248312658353	-0.6019648467230497	-0.19173299927496992	1.7076498306061791	-0.610040113601059	-0.18613084487286496	1.5816505817926902	-0.6587248104083154	-0.19501382085952393	1.5454090997751901	-0.7087619193884931	-0.18335976234556028	1.5571657363820541	-0.7292095604452069	-0.1844400751718707	1.5647844466123169	-0.6377023370835302	-0.2088106795980759	1.9816576221624225	-0.549281259731144	-0.20931577600117757	2.047088334021681	-0.6216439364549388	-1.7613031502388117	1.8895890282967	1.202500179479392	-0.24341119798785257	1.8948649533251305	-0.46604211082313407	-0.24925898596372142	1.833236496177788	-0.48704979257986786	-0.1834482244600679	1.9851981615198269	-0.6141691936128767	-0.1662924802743514	1.9152623197839433	-0.6592992020099302	-0.16301884511599932	1.8523026777372527	-0.6802695369255112
